<svg xmlns="http://www.w3.org/2000/svg" xmlns:xlink="http://www.w3.org/1999/xlink" id="Layer_1" width="327.3" height="291.2" x="0" y="0" enable-background="new 0 0 327.3 291.2" version="1.1" viewBox="0 0 327.3 291.2" xml:space="preserve"><g><g><path fill="#DD3E40" d="M281.2,151.2L167.2,65c-2.7-2-6.8-2-9.5,0L45.6,150.5c-2.7,2-4.8,6.3-4.8,9.7v59.3v12v35.7 c0,13.2,10.8,23.8,23.8,23.8h54V174.5c0-5,4-9,9-9h71.7c5,0,9,4,9,9V291h53.8c13.2,0,23.8-10.8,23.8-23.8v-35.8v-12v-58.7 C285.9,157.5,283.7,153.2,281.2,151.2z"/><rect width="53.8" height="107.7" x="136.4" y="183.5" fill="#DD3E40"/></g><path fill="#DD3E40" d="M176.1,4.4l148.8,112.3c2.7,2,3.2,5.7,1.2,8.3l-14.3,19.2c-2,2.7-5.7,3.2-8.3,1.2L167.2,42.7 c-2.7-2-6.8-2-9.5,0L24.1,144.5c-2.7,2-6.3,1.5-8.3-1.2l-14.5-19c-2-2.7-1.5-6.3,1.2-8.3L149.1,4.4C148.7,4.4,159.9-5.5,176.1,4.4z"/></g></svg>
